<svg width="239" height="39" viewBox="0 0 239 39" fill="none" xmlns="http://www.w3.org/2000/svg">
<path d="M0 0H5.22835C8.36817 0 11.1557 2.00916 12.1486 4.98785L23.2516 38.2967H18.0232C14.8834 38.2967 12.0959 36.2876 11.103 33.3089L0 0Z" fill="#2563EB"/>
<path d="M23.2515 0H28.4798C31.6196 0 34.4072 2.00916 35.4001 4.98785L46.503 38.2967H41.2747C38.1349 38.2967 35.3473 36.2876 34.3544 33.3089L23.2515 0Z" fill="#2563EB"/>
<rect x="13.1475" y="14.6176" width="19.1484" height="10.486" fill="#2563EB"/>
<path d="M72.0016 23.3401C72.0016 23.9211 72.0918 24.3318 72.2721 24.5722C72.4724 24.7926 72.793 24.9028 73.2337 24.9028C73.4341 24.9028 73.5943 24.8927 73.7145 24.8727V28.1483C73.1736 28.2285 72.6127 28.2685 72.0317 28.2685C70.5892 28.2685 69.5274 27.8979 68.8462 27.1566C68.165 26.4154 67.8245 25.2133 67.8245 23.5504V19.794C67.8245 18.8724 67.584 18.1612 67.1032 17.6604C66.6224 17.1595 65.9813 16.9091 65.1799 16.9091C64.2183 16.9091 63.457 17.2396 62.896 17.9008C62.3351 18.5419 62.0546 19.3933 62.0546 20.4552V28.1483H57.8774V7.11232H62.0546V15.1661C63.2967 13.964 64.7492 13.363 66.412 13.363C67.5139 13.363 68.4856 13.6235 69.327 14.1444C70.1685 14.6452 70.8196 15.3564 71.2804 16.278C71.7612 17.1996 72.0016 18.2714 72.0016 19.4935V23.3401ZM90.7887 22.9494C90.7887 23.6707 90.9089 24.1615 91.1493 24.4219C91.3897 24.6824 91.8906 24.7725 92.6519 24.6924V28.1483C92.151 28.2685 91.58 28.3286 90.9389 28.3286C90.0374 28.3286 89.246 28.1583 88.5649 27.8177C87.8837 27.4772 87.4129 26.9162 87.1525 26.1349C86.6516 26.8761 85.9804 27.4471 85.139 27.8478C84.2976 28.2485 83.356 28.4488 82.3142 28.4488C80.9919 28.4488 79.8199 28.1683 78.7982 27.6074C77.7964 27.0264 77.0151 26.195 76.4541 25.1131C75.8932 24.0112 75.6127 22.709 75.6127 21.2064C75.6127 19.4835 75.9934 18.041 76.7547 16.879C77.536 15.697 78.5878 14.8155 79.9101 14.2345C81.2524 13.6535 82.775 13.363 84.4779 13.363C86.5013 13.363 88.6049 13.7537 90.7887 14.535V22.9494ZM83.1556 24.8727C84.2775 24.8727 85.129 24.5221 85.71 23.8209C86.291 23.0997 86.5815 22.0879 86.5815 20.7857V17.1795C85.8402 16.9992 85.0489 16.9091 84.2074 16.9091C82.805 16.9091 81.7131 17.2697 80.9318 17.9909C80.1505 18.6921 79.7598 19.7239 79.7598 21.0862C79.7598 22.2683 80.0603 23.1998 80.6613 23.881C81.2824 24.5421 82.1138 24.8727 83.1556 24.8727ZM119.211 23.3401C119.211 23.9211 119.301 24.3318 119.481 24.5722C119.682 24.7926 119.992 24.9028 120.413 24.9028C120.613 24.9028 120.774 24.8927 120.894 24.8727V28.1483C120.193 28.2485 119.612 28.2986 119.151 28.2986C117.769 28.2986 116.727 27.938 116.026 27.2167C115.344 26.4755 115.004 25.3034 115.004 23.7007V19.7039C115.004 18.8023 114.803 18.1111 114.403 17.6303C114.002 17.1495 113.431 16.9091 112.69 16.9091C111.848 16.9091 111.157 17.1996 110.616 17.7806C110.075 18.3616 109.805 19.0828 109.805 19.9443V28.1483H105.658V19.764C105.658 18.8424 105.457 18.1412 105.057 17.6604C104.656 17.1595 104.075 16.9091 103.314 16.9091C102.452 16.9091 101.761 17.1896 101.24 17.7505C100.719 18.2914 100.459 19.0327 100.459 19.9743V28.1483H96.2517V18.6521C96.2517 18.0711 96.1515 17.6704 95.9512 17.45C95.7508 17.2096 95.4103 17.0894 94.9294 17.0894C94.7091 17.0894 94.5287 17.0994 94.3885 17.1194V13.6635C95.0697 13.5433 95.7108 13.4832 96.3118 13.4832C98.2351 13.4832 99.4271 14.2345 99.8879 15.7371C101.07 14.1544 102.693 13.363 104.756 13.363C105.678 13.363 106.499 13.5734 107.22 13.9941C107.942 14.4148 108.523 15.0058 108.963 15.7671C109.625 14.9658 110.366 14.3647 111.187 13.964C112.009 13.5634 112.96 13.363 114.042 13.363C115.605 13.363 116.857 13.914 117.799 15.0158C118.74 16.0977 119.211 17.5402 119.211 19.3432V23.3401ZM138.099 22.9494C138.099 23.5905 138.189 24.0513 138.369 24.3318C138.55 24.5922 138.9 24.7225 139.421 24.7225C139.642 24.7225 139.822 24.7124 139.962 24.6924V28.1483C139.401 28.2685 138.8 28.3286 138.159 28.3286C136.156 28.3286 134.934 27.5974 134.493 26.1349C133.952 26.8761 133.261 27.4471 132.419 27.8478C131.598 28.2485 130.666 28.4488 129.625 28.4488C128.142 28.4488 126.89 28.1082 125.868 27.4271C124.846 26.7259 124.085 25.7943 123.584 24.6323C123.083 23.4503 122.833 22.1581 122.833 20.7557C122.833 19.4134 123.103 18.1813 123.644 17.0593C124.185 15.9174 124.987 15.0158 126.048 14.3547C127.11 13.6936 128.372 13.363 129.835 13.363C130.696 13.363 131.458 13.4832 132.119 13.7236C132.78 13.944 133.371 14.2946 133.892 14.7754V7.11232H138.099V22.9494ZM130.466 24.8727C131.628 24.8727 132.499 24.4921 133.08 23.7308C133.661 22.9494 133.952 21.9677 133.952 20.7857C133.952 19.5837 133.661 18.642 133.08 17.9609C132.519 17.2597 131.648 16.9091 130.466 16.9091C129.384 16.9091 128.533 17.2697 127.912 17.9909C127.291 18.6921 126.98 19.6237 126.98 20.7857C126.98 21.9878 127.28 22.9695 127.882 23.7308C128.483 24.4921 129.344 24.8727 130.466 24.8727ZM157.142 22.9494C157.142 23.6707 157.263 24.1615 157.503 24.4219C157.743 24.6824 158.244 24.7725 159.006 24.6924V28.1483C158.505 28.2685 157.934 28.3286 157.293 28.3286C156.391 28.3286 155.6 28.1583 154.919 27.8177C154.237 27.4772 153.767 26.9162 153.506 26.1349C153.005 26.8761 152.334 27.4471 151.493 27.8478C150.651 28.2485 149.71 28.4488 148.668 28.4488C147.346 28.4488 146.174 28.1683 145.152 27.6074C144.15 27.0264 143.369 26.195 142.808 25.1131C142.247 24.0112 141.966 22.709 141.966 21.2064C141.966 19.4835 142.347 18.041 143.108 16.879C143.89 15.697 144.942 14.8155 146.264 14.2345C147.606 13.6535 149.129 13.363 150.832 13.363C152.855 13.363 154.959 13.7537 157.142 14.535V22.9494ZM149.509 24.8727C150.631 24.8727 151.483 24.5221 152.064 23.8209C152.645 23.0997 152.935 22.0879 152.935 20.7857V17.1795C152.194 16.9992 151.403 16.9091 150.561 16.9091C149.159 16.9091 148.067 17.2697 147.286 17.9909C146.504 18.6921 146.114 19.7239 146.114 21.0862C146.114 22.2683 146.414 23.1998 147.015 23.881C147.636 24.5421 148.468 24.8727 149.509 24.8727ZM176.76 23.3401C176.76 23.9211 176.85 24.3318 177.03 24.5722C177.23 24.7926 177.541 24.9028 177.962 24.9028C178.162 24.9028 178.322 24.8927 178.443 24.8727V28.1483C177.922 28.2485 177.331 28.2986 176.67 28.2986C175.307 28.2986 174.275 27.9279 173.574 27.1867C172.893 26.4254 172.552 25.2133 172.552 23.5504V19.8541C172.552 18.9325 172.312 18.2113 171.831 17.6904C171.35 17.1695 170.689 16.9091 169.848 16.9091C168.946 16.9091 168.215 17.2296 167.654 17.8707C167.113 18.5118 166.833 19.3432 166.813 20.365V28.1483H162.605V18.6521C162.605 18.0711 162.505 17.6704 162.305 17.45C162.105 17.2096 161.764 17.0894 161.283 17.0894C161.063 17.0894 160.883 17.0994 160.742 17.1194V13.6635C161.423 13.5433 162.065 13.4832 162.666 13.4832C164.569 13.4832 165.751 14.2145 166.212 15.677C166.853 14.8956 167.594 14.3146 168.435 13.934C169.277 13.5533 170.168 13.363 171.11 13.363C172.813 13.363 174.175 13.934 175.197 15.0759C176.239 16.1979 176.76 17.6804 176.76 19.5236V23.3401ZM196.099 23.3401C196.099 23.9211 196.19 24.3318 196.37 24.5722C196.57 24.7926 196.881 24.9028 197.301 24.9028C197.502 24.9028 197.662 24.8927 197.782 24.8727V28.1483C197.261 28.2485 196.67 28.2986 196.009 28.2986C194.647 28.2986 193.615 27.9279 192.914 27.1867C192.233 26.4254 191.892 25.2133 191.892 23.5504V19.8541C191.892 18.9325 191.652 18.2113 191.171 17.6904C190.69 17.1695 190.029 16.9091 189.188 16.9091C188.286 16.9091 187.555 17.2296 186.994 17.8707C186.453 18.5118 186.172 19.3432 186.152 20.365V28.1483H181.945V18.6521C181.945 18.0711 181.845 17.6704 181.645 17.45C181.444 17.2096 181.104 17.0894 180.623 17.0894C180.403 17.0894 180.222 17.0994 180.082 17.1194V13.6635C180.763 13.5433 181.404 13.4832 182.005 13.4832C183.909 13.4832 185.091 14.2145 185.551 15.677C186.192 14.8956 186.934 14.3146 187.775 13.934C188.617 13.5533 189.508 13.363 190.45 13.363C192.153 13.363 193.515 13.934 194.537 15.0759C195.579 16.1979 196.099 17.6804 196.099 19.5236V23.3401ZM214.661 23.3401C214.661 23.901 214.751 24.3017 214.932 24.5421C215.132 24.7625 215.433 24.8727 215.833 24.8727C216.054 24.8727 216.224 24.8627 216.344 24.8427V28.1483C215.683 28.2685 215.072 28.3286 214.511 28.3286C212.608 28.3286 211.446 27.5673 211.025 26.0447C210.424 26.8661 209.723 27.4772 208.922 27.8779C208.14 28.2585 207.239 28.4488 206.217 28.4488C205.135 28.4488 204.173 28.1984 203.332 27.6975C202.491 27.1767 201.839 26.4554 201.379 25.5338C200.918 24.5922 200.687 23.5104 200.687 22.2883V18.4417C200.687 17.8006 200.567 17.3699 200.327 17.1495C200.086 16.9291 199.706 16.849 199.185 16.9091V13.6635C199.846 13.5634 200.407 13.5133 200.868 13.5133C202.21 13.5133 203.212 13.8839 203.873 14.6252C204.554 15.3664 204.895 16.5384 204.895 18.1412V21.9277C204.895 22.8693 205.125 23.6005 205.586 24.1214C206.047 24.6223 206.678 24.8727 207.479 24.8727C208.381 24.8727 209.102 24.5421 209.643 23.881C210.184 23.1998 210.454 22.3284 210.454 21.2665V13.6635H214.661V23.3401ZM227.793 13.3931C228.995 13.3931 230.137 13.7036 231.219 14.3247L229.807 17.8407C229.406 17.6003 229.015 17.44 228.635 17.3599C228.274 17.2597 227.873 17.2096 227.432 17.2096C226.511 17.2096 225.73 17.5201 225.088 18.1412C224.467 18.7623 224.157 19.6638 224.157 20.8458V28.1483H219.95V18.6521C219.95 18.0711 219.85 17.6704 219.649 17.45C219.449 17.2096 219.108 17.0894 218.627 17.0894C218.407 17.0894 218.227 17.0994 218.087 17.1194V13.6635C218.808 13.5433 219.459 13.4832 220.04 13.4832C220.981 13.4832 221.743 13.6635 222.324 14.0241C222.905 14.3848 223.315 14.9557 223.556 15.7371C224.057 14.9758 224.678 14.3948 225.419 13.9941C226.18 13.5934 226.972 13.3931 227.793 13.3931ZM234.452 28.4488C233.67 28.4488 233.029 28.2285 232.528 27.7877C232.027 27.3469 231.777 26.7559 231.777 26.0147C231.777 25.2734 232.027 24.6824 232.528 24.2416C233.029 23.8009 233.67 23.5805 234.452 23.5805C235.233 23.5805 235.874 23.8009 236.375 24.2416C236.876 24.6824 237.126 25.2734 237.126 26.0147C237.126 26.7559 236.876 27.3469 236.375 27.7877C235.874 28.2285 235.233 28.4488 234.452 28.4488Z" fill="black"/>
</svg>
